<?xml version="1.0" standalone="no"?><!DOCTYPE svg PUBLIC "-//W3C//DTD SVG 1.1//EN" "http://www.w3.org/Graphics/SVG/1.1/DTD/svg11.dtd"><svg t="1528187711927" class="icon" style="" viewBox="0 0 1024 1024" version="1.1" xmlns="http://www.w3.org/2000/svg" p-id="3460" xmlns:xlink="http://www.w3.org/1999/xlink" width="128" height="128"><defs><style type="text/css"></style></defs><path d="M516.085038 623.25078c-105.579617 0-191.475939-85.895299-191.475939-191.475939s85.895299-191.475939 191.475939-191.475939c105.58064 0 191.475939 85.895299 191.475939 191.475939S621.665679 623.25078 516.085038 623.25078zM516.085038 281.230126c-83.009576 0-150.543691 67.534116-150.543691 150.543691s67.534116 150.543691 150.543691 150.543691c83.010599 0 150.543691-67.534116 150.543691-150.543691S599.095637 281.230126 516.085038 281.230126z" fill="#8a8a8a" p-id="3461"></path><path d="M748.84115 779.786952c-39.572274-93.827969-130.934075-154.455791-232.756111-154.455791-101.821013 0-193.182814 60.627822-232.755088 154.455791l-37.714973-15.907295c22.155603-52.5304 58.905598-97.233532 106.278535-129.273249 48.565089-32.846082 105.341187-50.207495 164.191526-50.207495s115.627461 17.362436 164.192549 50.207495c47.372937 32.04074 84.122933 76.742848 106.277512 129.273249L748.84115 779.786952z" fill="#8a8a8a" p-id="3462"></path><path d="M512 955.503976c-59.361993 0-116.959805-11.630898-171.191964-34.56933-52.371788-22.150486-99.402941-53.858652-139.785673-94.242408-40.382733-40.382733-72.090898-87.413885-94.242408-139.786697-22.938432-54.232159-34.56933-111.829971-34.56933-171.191964 0-59.361993 11.630898-116.959805 34.56933-171.191964 22.151509-52.371788 53.859675-99.402941 94.242408-139.785673 40.382733-40.382733 87.413885-72.090898 139.785673-94.242408 54.233182-22.938432 111.829971-34.56933 171.191964-34.56933 59.361993 0 116.959805 11.630898 171.191964 34.56933 52.372811 22.151509 99.403964 53.859675 139.786697 94.242408 40.383756 40.382733 72.090898 87.413885 94.242408 139.785673 22.938432 54.233182 34.56933 111.829971 34.56933 171.191964 0 59.361993-11.630898 116.959805-34.56933 171.191964-22.150486 52.372811-53.858652 99.403964-94.242408 139.786697-40.382733 40.383756-87.413885 72.090898-139.786697 94.242408C628.959805 943.873078 571.361993 955.503976 512 955.503976zM512 116.857475c-219.931015 0-398.857127 178.927135-398.857127 398.857127s178.927135 398.857127 398.857127 398.857127 398.857127-178.927135 398.857127-398.857127S731.931015 116.857475 512 116.857475z" fill="#8a8a8a" p-id="3463"></path></svg>
